<?xml version="1.0" standalone="no"?><!DOCTYPE svg PUBLIC "-//W3C//DTD SVG 1.1//EN" "http://www.w3.org/Graphics/SVG/1.1/DTD/svg11.dtd"><svg t="1619144690657" class="icon" viewBox="0 0 1024 1024" version="1.1" xmlns="http://www.w3.org/2000/svg" p-id="3324" xmlns:xlink="http://www.w3.org/1999/xlink" width="80" height="80"><defs><style type="text/css"></style></defs><path d="M561.27 635.074c9.52-10.288 9.016-25.584-1.164-35.318l-141.48-139.12-45.206-41.748c-2.326 1.076-3.49 3.204-5.818 5.356L74.22 751.716V193.112c2.328-14.992 15.078-24.628 30.154-24.628h400.058L569.39 100H64.936C28.99 100 0 126.758 0 161v702C0 896.192 28.99 924 64.936 924h224.982l271.352-288.926z m82.388-294.74c0 36.798 19.516 70.8 51.2 89.2a101.884 101.884 0 0 0 102.4 0c31.68-18.4 51.2-52.402 51.2-89.2 0-56.886-45.846-103-102.4-103-56.554 0-102.4 46.114-102.4 103z" fill="#bfbfbf" p-id="3325"></path><path d="M957.834 100H736.886c-1.18 2.152-2.364 5.356-4.726 6.432L673.08 168.666h244.58c16.54 0 29.538 10.736 30.72 25.75l1.18 558.99-236.306-229.596c-7.734-8.25-18.952-12.956-30.72-12.888-11.816 0-20.086 5.38-30.72 11.812l-10.634 7.506 69.71 67.592c10.634 9.66 10.634 24.674 1.18 35.408L433.234 924l524.6-0.002c17.534 0.16 34.402-6.222 46.838-17.716 12.434-11.494 19.396-27.14 19.33-43.444V160.084C1024 126.824 994.46 100 957.834 100z" fill="#bfbfbf" p-id="3326"></path></svg>